<svg width="225" height="206" viewBox="0 0 225 206" fill="none" xmlns="http://www.w3.org/2000/svg">
<path fill-rule="evenodd" clip-rule="evenodd" d="M101.435 1.81708C98.674 2.77208 94.849 4.64908 92.935 5.98808C87.28 9.94408 13.242 68.0121 8.25 72.4061C0.712 79.0411 0 81.6411 0 102.516C0 124.163 0.553 125.901 10.063 134.123C16.752 139.906 79.817 189.286 90.802 197.342C104.856 207.648 120.054 207.648 134.11 197.343C143.819 190.224 211.587 137.093 216.717 132.577C224.195 125.995 224.912 123.365 224.912 102.516C224.912 80.8691 224.359 79.1311 214.849 70.9091C208.16 65.1261 145.095 15.7461 134.11 7.69008C123.832 0.153075 112.262 -1.92592 101.435 1.81708ZM123.024 20.5621C131.18 26.0501 145.888 38.0201 146.977 40.0561C148.24 42.4141 148.229 46.6371 146.955 49.0171C145.89 51.0081 126.824 66.3061 120.956 69.8781C116.239 72.7491 108.673 72.7491 103.956 69.8781C98.088 66.3061 79.022 51.0081 77.957 49.0171C76.683 46.6371 76.672 42.4141 77.935 40.0561C79.024 38.0201 93.732 26.0501 101.888 20.5621C106.275 17.6101 108.044 17.0161 112.456 17.0161C116.868 17.0161 118.637 17.6101 123.024 20.5621ZM64.21 61.6471C68.613 63.9241 143.569 122.709 145.984 125.779C148.368 128.809 148.501 132.295 146.369 135.862C144.657 138.727 125.39 154.241 119.863 157.206C115.821 159.374 110.082 159.537 105.674 157.609C101.791 155.911 25.371 96.0541 23.287 93.0791C21.488 90.5101 21.276 86.1551 22.81 83.2881C23.988 81.0871 42.697 65.9641 48.956 62.1541C53.19 59.5771 59.782 59.3571 64.21 61.6471ZM175.956 62.1541C182.215 65.9641 200.924 81.0871 202.102 83.2881C203.623 86.1311 203.428 90.5041 201.666 93.0191C199.359 96.3131 178.838 112.112 174.093 114.246C166.886 117.489 163.12 116.294 150.474 106.753C132.548 93.2271 130.281 90.2991 133.122 84.3401C134.527 81.3941 153.878 65.2811 159.956 61.9961C164.732 59.4151 171.568 59.4831 175.956 62.1541Z" fill="#7209B7"/>
</svg>
